<svg id="Layer_1" data-name="Layer 1" xmlns="http://www.w3.org/2000/svg" width="1921" height="1090.81" viewBox="0 0 1921 1090.81"><defs><style>.cls-1{fill:#bc8f8f;stroke:#bc8f8f;stroke-miterlimit:10;}.cls-2{fill:#715454;}.cls-3{fill:#fbe3de;}.cls-4{fill:#fff;}</style></defs><title>splash_ide</title><rect class="cls-1" x="0.5" y="10.81" width="1920" height="1079.5"/><path class="cls-2" d="M198.24-6c-5,71.14-4.64,142.52-1.65,213.74s8.61,142.51,14.14,213.68q4.72,60.75,9.44,121.49c.15,1.91,3.15,1.93,3,0-5.54-71.28-11.34-142.55-16.45-213.87-5.09-71.16-9.11-142.44-9.32-213.8-.11-40.45,1-80.89,3.84-121.24.13-1.93-2.87-1.92-3,0Z" transform="translate(0.5 10.31)"/><path class="cls-2" d="M551.87-.8q-18.79,104.37-31.55,209.71Q507.51,314.78,500.9,421.28q-3.7,59.85-5.46,119.79c-.11,3.86,5.89,3.86,6,0q3.1-105.61,12.26-211,9.24-105.83,24.63-211Q547,59.8,557.65.8c.68-3.78-5.1-5.4-5.78-1.6Z" transform="translate(0.5 10.31)"/><path class="cls-2" d="M902.87-2.75q.15,107.13,1.94,214.23t5.25,214.18q2,60.75,4.44,121.49c.08,1.92,3.08,1.93,3,0q-4.38-107-7.12-214.12t-3.81-214.21Q906,58,905.87-2.75a1.5,1.5,0,0,0-3,0Z" transform="translate(0.5 10.31)"/><path class="cls-2" d="M1093.7-8.87c-2.44,89.43-4.8,179.06,1.37,268.39,3,43.28,8,86.46,16.08,129.1,8.23,43.41,21.18,85.54,31.65,128.41,11.61,47.5,19.55,97.27,7.82,145.57-.45,1.88,2.44,2.68,2.9.8,20.76-85.57-17.17-171.08-35-253.59-18.89-87.34-23.94-177-24.31-266.18C1094,92.79,1095.31,42,1096.7-8.87c0-1.93-3-1.93-3,0Z" transform="translate(0.5 10.31)"/><path class="cls-2" d="M697.33,3.52q2.94,152.4,8.76,304.72t14.56,304.61q4.92,85.6,10.73,171.15c.39,5.75,9.4,5.79,9,0Q730,631.82,722.56,479.48t-12-304.67Q708,89.18,706.33,3.52c-.12-5.79-9.12-5.81-9,0Z" transform="translate(0.5 10.31)"/><path class="cls-2" d="M1404.67-2.78c-2.9,94.87-7.4,190-22.56,283.83A1052.62,1052.62,0,0,1,1351,417.6c-13.38,44.27-29.35,87.78-40.77,132.63-12.41,48.75-19,99.45-9.23,149.29.38,1.89,3.27,1.09,2.9-.8-18.1-92.39,19.74-183,46.71-269.64,27.73-89,41.85-181.24,49.17-274,4.14-52.51,6.25-105.17,7.86-157.81.06-1.94-2.94-1.93-3,0Z" transform="translate(0.5 10.31)"/><path class="cls-2" d="M1542.84,1.41c-3.54,101.22,7.7,202.05,17.69,302.61q15.08,151.78,17.32,304.11c.93,57.47,1,115,1,172.44,0,3.86,6,3.87,6,0-.1-101.73-.2-203.5-5.13-305.13-4.9-101.34-17.61-201.9-25.7-303-4.55-56.9-7.22-114-5.22-171.06.13-3.86-5.87-3.86-6,0Z" transform="translate(0.5 10.31)"/><path class="cls-2" d="M330-3.8Q303.65,167,293,339.82q-5.3,86.57-6.58,173.33c-.82,55.81-.68,111.71,3.33,167.41,4.43,61.65,13.74,123.11,31.77,182.33,1.12,3.69,6.91,2.12,5.78-1.59-32.34-106.23-36.16-218.19-35.12-328.44q1.62-171.5,19-342.34Q321,93.86,335.82-2.2c.58-3.78-5.2-5.41-5.79-1.6Z" transform="translate(0.5 10.31)"/><path class="cls-2" d="M50.59-.82C47.82,104,45.06,208.84,44.08,313.69c-.49,52-1,104.05,1.11,156A1064.3,1064.3,0,0,0,62.5,621.78c10.59,56.43,24.92,112.07,39.25,167.64,1.44,5.61,10.13,3.23,8.68-2.39C97.72,737.72,85,688.39,74.9,638.46a1056.62,1056.62,0,0,1-20-152.92c-2.77-51.57-2.39-103.26-2-154.87q.59-77.9,2.33-155.77Q57.12,87,59.59-.82c.15-5.79-8.85-5.79-9,0Z" transform="translate(0.5 10.31)"/><path class="cls-2" d="M1828.7-.77a2323.22,2323.22,0,0,0-99.13,654.82q-.66,93.14,6.21,186.11c.43,5.75,9.43,5.79,9,0a2311.51,2311.51,0,0,1,45.91-658.27q19.69-91,46.69-180.27c1.68-5.55-7-7.93-8.68-2.39Z" transform="translate(0.5 10.31)"/><ellipse class="cls-3" cx="740" cy="872.81" rx="37.5" ry="33.5"/><ellipse class="cls-3" cx="739.5" cy="841.56" rx="19" ry="12.75"/><rect class="cls-3" x="724" y="805.81" width="30" height="30"/><ellipse class="cls-3" cx="739" cy="805.81" rx="15.5" ry="11.5"/><ellipse class="cls-3" cx="329.16" cy="924.08" rx="45.54" ry="40.68" transform="translate(-119.07 62.09) rotate(-7.62)"/><ellipse class="cls-3" cx="323.53" cy="886.55" rx="23.07" ry="15.48" transform="translate(-114.15 61.01) rotate(-7.62)"/><rect class="cls-3" x="301.37" y="843.44" width="36.43" height="36.43" transform="translate(-110.88 60.27) rotate(-7.62)"/><ellipse class="cls-3" cx="317.17" cy="843.6" rx="18.82" ry="13.96" transform="translate(-108.51 59.79) rotate(-7.62)"/><ellipse class="cls-3" cx="499" cy="621.81" rx="37.5" ry="33.5"/><ellipse class="cls-3" cx="498.5" cy="590.56" rx="19" ry="12.75"/><rect class="cls-3" x="483" y="554.81" width="30" height="30"/><ellipse class="cls-3" cx="498" cy="554.81" rx="15.5" ry="11.5"/><ellipse class="cls-3" cx="917" cy="576.04" rx="18.5" ry="16.53"/><ellipse class="cls-3" cx="916.75" cy="560.62" rx="9.37" ry="6.29"/><rect class="cls-3" x="909.11" y="542.99" width="14.8" height="14.8"/><ellipse class="cls-3" cx="916.51" cy="542.99" rx="7.65" ry="5.67"/><ellipse class="cls-3" cx="226.18" cy="567.54" rx="13" ry="11.61" transform="translate(-82.99 51.2) rotate(-8.73)"/><ellipse class="cls-3" cx="224.37" cy="556.85" rx="6.59" ry="4.42" transform="matrix(0.99, -0.15, 0.15, 0.99, -81.39, 50.8)"/><rect class="cls-3" x="217.91" y="544.57" width="10.4" height="10.4" transform="translate(-80.33 50.53) rotate(-8.73)"/><ellipse class="cls-3" cx="222.32" cy="544.63" rx="5.37" ry="3.99" transform="translate(-79.56 50.35) rotate(-8.73)"/><ellipse class="cls-3" cx="120.94" cy="845.66" rx="31.95" ry="28.55" transform="translate(-190.56 60.72) rotate(-13.28)"/><ellipse class="cls-3" cx="114.41" cy="819.84" rx="16.19" ry="10.86" transform="translate(-184.81 58.53) rotate(-13.28)"/><rect class="cls-3" x="97.15" y="789.95" width="25.56" height="25.56" transform="translate(-180.99 57.05) rotate(-13.28)"/><ellipse class="cls-3" cx="106.99" cy="790.29" rx="13.21" ry="9.8" transform="translate(-178.21 56.04) rotate(-13.28)"/><ellipse class="cls-3" cx="1309.79" cy="735.49" rx="18.5" ry="16.53" transform="matrix(0.98, -0.21, 0.21, 0.98, -122.97, 296.09)"/><ellipse class="cls-3" cx="1306.37" cy="720.45" rx="9.37" ry="6.29" transform="translate(-119.95 295.06) rotate(-11.9)"/><rect class="cls-3" x="1296.62" y="703.09" width="14.8" height="14.8" transform="translate(-117.95 294.36) rotate(-11.9)"/><ellipse class="cls-3" cx="1302.49" cy="703.25" rx="7.65" ry="5.67" transform="translate(-116.49 293.89) rotate(-11.9)"/><ellipse class="cls-3" cx="1144.05" cy="697.45" rx="16.53" ry="18.5" transform="translate(211.67 1669.55) rotate(-77.24)"/><ellipse class="cls-3" cx="1147.21" cy="682.36" rx="6.29" ry="9.37" transform="translate(228.86 1660.88) rotate(-77.24)"/><rect class="cls-3" x="1141.83" y="664.92" width="14.8" height="14.8" transform="translate(177.34 -226.87) rotate(12.76)"/><ellipse class="cls-3" cx="1150.87" cy="665.11" rx="5.67" ry="7.65" transform="translate(248.53 1651) rotate(-77.24)"/><rect class="cls-3" x="1713.57" y="821.59" width="47.68" height="47.68"/><ellipse class="cls-3" cx="1738.21" cy="878.41" rx="30.2" ry="20.26"/><ellipse class="cls-3" cx="1737.41" cy="821.59" rx="24.63" ry="18.28"/><ellipse class="cls-3" cx="1582" cy="858.81" rx="37.5" ry="33.5"/><ellipse class="cls-3" cx="1581.5" cy="827.56" rx="19" ry="12.75"/><rect class="cls-3" x="1566" y="791.81" width="30" height="30"/><ellipse class="cls-3" cx="1581" cy="791.81" rx="15.5" ry="11.5"/><path class="cls-4" d="M1557.82,831.3a32.57,32.57,0,0,0-7.46,16,3.14,3.14,0,0,0,.62,2.94,7.41,7.41,0,0,0,2,1c3.58,1.63,4.57,5.42,5.2,8.75,6-3.88,7.82-10.65,8.28-16.91a13.52,13.52,0,0,0-1-7.3,7.83,7.83,0,0,0-6.77-4.22" transform="translate(0.5 10.31)"/><path class="cls-4" d="M1556.76,830.24c-3.77,4.67-7.56,10.85-7.9,17-.09,1.68,0,3.05,1.36,4.23,1.2,1.05,2.72,1.14,3.91,2.38,1.67,1.72,2.13,4.25,2.58,6.5a1.52,1.52,0,0,0,2.21.9c8.7-6.27,15.66-29.56-.21-31.23-1.91-.2-1.9,2.8,0,3,7.5.79,6.75,9.07,5.63,14.36a17.8,17.8,0,0,1-6.94,11.27l2.2.9a14.68,14.68,0,0,0-5.27-9.29c-1.88-1.66-2.49.77-2.24-4.18a14.59,14.59,0,0,1,1.07-3.82,33.58,33.58,0,0,1,5.72-9.95c1.2-1.49-.91-3.63-2.12-2.12Z" transform="translate(0.5 10.31)"/><ellipse class="cls-3" cx="1739" cy="928.07" rx="59.6" ry="53.24"/><path class="cls-4" d="M1699.66,885.3a41.64,41.64,0,0,0-9.54,20.45c-.2,1.3-.27,2.78.79,3.75a9.38,9.38,0,0,0,2.54,1.31c4.57,2.09,5.84,6.93,6.64,11.19,7.62-5,10-13.62,10.6-21.62.23-3.15.25-6.43-1.24-9.34a10,10,0,0,0-8.65-5.39" transform="translate(0.5 10.31)"/><path class="cls-4" d="M1698.6,884.24c-4.85,6-9.23,13.48-9.95,21.31-.22,2.39.07,4.19,2.1,5.62,2.19,1.55,4.34,2.08,5.81,4.6a21,21,0,0,1,2.08,6.63,1.52,1.52,0,0,0,2.21.9c7.25-5.12,10.36-12.95,11.22-21.58.83-8.36-1.71-16.82-11.27-17.57-1.92-.16-1.91,2.84,0,3,9.43.74,9.07,11.25,7.74,18.22-1.18,6.18-4,11.65-9.21,15.33l2.21.9a24.28,24.28,0,0,0-2.39-7.35c-1.32-2.33-3-3.12-5-4.73-1.47-.2-2.09-1.12-1.85-2.76a4.33,4.33,0,0,1-.17-3.73,22.2,22.2,0,0,1,1.41-4.6,43.15,43.15,0,0,1,7.13-12.07c1.21-1.49-.9-3.62-2.12-2.12Z" transform="translate(0.5 10.31)"/><path class="cls-4" d="M1301,729.59a7.43,7.43,0,0,0-1.71,3.67.7.7,0,0,0,.14.67,1.67,1.67,0,0,0,.46.24,2.48,2.48,0,0,1,1.19,2,4.84,4.84,0,0,0,1.9-3.88,3.21,3.21,0,0,0-.22-1.68,1.82,1.82,0,0,0-1.55-1" transform="translate(0.5 10.31)"/><path class="cls-4" d="M1299.94,728.53a9,9,0,0,0-2.12,4.53,2.19,2.19,0,0,0,.7,2.05c.68.56.91.49,1.11,1.46a1.51,1.51,0,0,0,2.2.9c3-2.18,4.3-8.7-.62-9.32-1.92-.24-1.9,2.76,0,3,.58.08.21,1.68.13,2a2.84,2.84,0,0,1-1,1.72l2.2.9a3.89,3.89,0,0,0-1.72-2.81c-.18-.1-.77-.19-.2,0,.2.37.3.32.3-.14l.12-.39a6.57,6.57,0,0,1,1-1.84c1.2-1.49-.91-3.63-2.12-2.12Z" transform="translate(0.5 10.31)"/><path class="cls-4" d="M1135,688.59a7.43,7.43,0,0,0-1.71,3.67.7.7,0,0,0,.14.67,1.67,1.67,0,0,0,.46.24,2.48,2.48,0,0,1,1.19,2,4.84,4.84,0,0,0,1.9-3.88,3.21,3.21,0,0,0-.22-1.68,1.82,1.82,0,0,0-1.55-1" transform="translate(0.5 10.31)"/><path class="cls-4" d="M1133.94,687.53a9,9,0,0,0-2.12,4.53,2.19,2.19,0,0,0,.7,2.05c.68.56.91.49,1.11,1.46a1.51,1.51,0,0,0,2.2.9c3-2.18,4.3-8.7-.62-9.32-1.92-.24-1.9,2.76,0,3,.58.08.21,1.68.13,2a2.84,2.84,0,0,1-1,1.72l2.2.9a3.89,3.89,0,0,0-1.72-2.81c-.18-.1-.77-.19-.2,0,.2.37.3.32.3-.14l.12-.39a6.57,6.57,0,0,1,1-1.84c1.2-1.49-.91-3.63-2.12-2.12Z" transform="translate(0.5 10.31)"/><path class="cls-4" d="M905,559.59a7.43,7.43,0,0,0-1.71,3.67.7.7,0,0,0,.14.67,1.67,1.67,0,0,0,.46.24,2.48,2.48,0,0,1,1.19,2,4.84,4.84,0,0,0,1.9-3.88,3.21,3.21,0,0,0-.22-1.68,1.82,1.82,0,0,0-1.55-1" transform="translate(0.5 10.31)"/><path class="cls-4" d="M903.94,558.53a9,9,0,0,0-2.12,4.53,2.19,2.19,0,0,0,.7,2.05c.68.56.91.49,1.11,1.46a1.51,1.51,0,0,0,2.2.9c3-2.18,4.3-8.7-.62-9.32-1.92-.24-1.9,2.76,0,3,.58.08.21,1.68.13,2a2.84,2.84,0,0,1-1,1.72l2.2.9A3.89,3.89,0,0,0,904.8,563c-.18-.1-.77-.19-.2,0,.2.37.3.32.3-.14l.12-.39a6.57,6.57,0,0,1,1-1.84c1.2-1.49-.91-3.63-2.12-2.12Z" transform="translate(0.5 10.31)"/><path class="cls-4" d="M218,563.59a7.43,7.43,0,0,0-1.71,3.67.7.7,0,0,0,.14.67,1.67,1.67,0,0,0,.46.24,2.48,2.48,0,0,1,1.19,2,4.84,4.84,0,0,0,1.9-3.88,3.21,3.21,0,0,0-.22-1.68,1.82,1.82,0,0,0-1.55-1" transform="translate(0.5 10.31)"/><path class="cls-4" d="M216.94,562.53a9,9,0,0,0-2.12,4.53,2.19,2.19,0,0,0,.7,2.05c.68.56.91.49,1.11,1.46a1.51,1.51,0,0,0,2.2.9c3-2.18,4.3-8.7-.62-9.32-1.92-.24-1.9,2.76,0,3,.58.08.21,1.68.13,2a2.84,2.84,0,0,1-1,1.72l2.2.9A3.89,3.89,0,0,0,217.8,567c-.18-.1-.77-.19-.2,0,.2.37.3.32.3-.14l.12-.39a6.57,6.57,0,0,1,1-1.84c1.2-1.49-.91-3.63-2.12-2.12Z" transform="translate(0.5 10.31)"/><path class="cls-4" d="M715.82,842.3a32.57,32.57,0,0,0-7.46,16,3.14,3.14,0,0,0,.62,2.94,7.41,7.41,0,0,0,2,1c3.58,1.63,4.57,5.42,5.2,8.75,6-3.88,7.82-10.65,8.28-16.91a13.52,13.52,0,0,0-1-7.3,7.83,7.83,0,0,0-6.77-4.22" transform="translate(0.5 10.31)"/><path class="cls-4" d="M714.76,841.24c-3.77,4.67-7.56,10.85-7.9,17-.09,1.68,0,3.05,1.36,4.23,1.2,1.05,2.72,1.14,3.91,2.38,1.67,1.72,2.13,4.25,2.58,6.5a1.52,1.52,0,0,0,2.21.9c8.7-6.27,15.66-29.56-.21-31.23-1.91-.2-1.9,2.8,0,3,7.5.79,6.75,9.07,5.63,14.36a17.8,17.8,0,0,1-6.94,11.27l2.2.9a14.68,14.68,0,0,0-5.27-9.29c-1.88-1.66-2.49.77-2.24-4.18a14.59,14.59,0,0,1,1.07-3.82,33.58,33.58,0,0,1,5.72-9.95c1.2-1.49-.91-3.63-2.12-2.12Z" transform="translate(0.5 10.31)"/><path class="cls-4" d="M476.61,593.3a30.94,30.94,0,0,0-8.5,16,2.87,2.87,0,0,0,.7,2.94,8.83,8.83,0,0,0,2.26,1c4.07,1.63,5.21,5.42,5.92,8.75,6.79-3.88,8.91-10.65,9.44-16.91.21-2.46.22-5-1.1-7.3a9.09,9.09,0,0,0-7.71-4.22" transform="translate(0.5 10.31)"/><path class="cls-4" d="M475.55,592.24c-4.13,4.5-8.92,11.13-9,17.57a4.24,4.24,0,0,0,2,4c1.87,1.36,3.56,1.23,5.11,3.42a14.31,14.31,0,0,1,1.85,5.17,1.53,1.53,0,0,0,2.21.9c6.35-4,9.38-10.22,10.12-17.58s-2.53-13-10.25-13.65c-1.92-.15-1.91,2.85,0,3,7.71.61,8.06,8.06,6.69,14a17.78,17.78,0,0,1-8.08,11.59l2.21.9a15.55,15.55,0,0,0-5.36-9c-1.64-1.49-1.18.21-2.41-2.61-.89-2.06-.6-2.93.13-4.91a32.48,32.48,0,0,1,6.87-10.7c1.3-1.42-.82-3.55-2.12-2.12Z" transform="translate(0.5 10.31)"/><path class="cls-4" d="M295.85,906.69A30.91,30.91,0,0,0,290.6,924a2.85,2.85,0,0,0,1.25,2.74,8.67,8.67,0,0,0,2.42.57c4.31.82,6.15,4.31,7.49,7.44,5.92-5.11,6.69-12.16,6-18.4-.27-2.47-.75-5-2.49-7a9.11,9.11,0,0,0-8.38-2.65" transform="translate(0.5 10.31)"/><path class="cls-4" d="M294.56,905.94c-3.1,5.06-6.91,13.15-5.34,19.33.45,1.76,1.27,2.38,2.81,3.13,2,1,3.89.65,5.63,2.41a15.33,15.33,0,0,1,2.81,4.73,1.51,1.51,0,0,0,2.35.3c5.49-5.18,7.26-12.09,6.45-19.46-.77-7-4.95-11.87-12.37-11.11-1.9.19-1.92,3.19,0,3,7.9-.81,9.72,5.82,9.57,12.2a17.9,17.9,0,0,1-5.77,13.25l2.36.31c-1.77-4-3.74-6.28-7.72-7.95-1.33-.56-2.65-.34-3.24-2.05-.44-1.25.37-5,.57-6a33.58,33.58,0,0,1,4.48-10.59c1-1.65-1.59-3.16-2.59-1.51Z" transform="translate(0.5 10.31)"/><path class="cls-4" d="M96.16,836.8a25,25,0,0,0-2.51,14.41,2.3,2.3,0,0,0,1.28,2.07,6.72,6.72,0,0,0,2,.22c3.53.23,5.35,2.85,6.74,5.23,4.23-4.68,4.16-10.41,3-15.34a9.74,9.74,0,0,0-2.68-5.33,7.33,7.33,0,0,0-7-1.3" transform="translate(0.5 10.31)"/><path class="cls-4" d="M94.86,836.05c-2.07,4.59-4.11,10.88-2.56,16a3.72,3.72,0,0,0,2.23,2.71c1,.43,2.22.13,3.24.41,2.3.64,3.45,2.46,4.59,4.35a1.51,1.51,0,0,0,2.36.3c4-4.9,4.85-10.71,3.38-16.8-1.38-5.73-5.5-9-11.49-7.68-1.88.43-1.09,3.32.8,2.89,10.75-2.45,9.32,14.44,5.19,19.47l2.35.3a12.49,12.49,0,0,0-6.38-5.72c-.47-.19-1.22,0-1.65-.25-2.13-1.27-2-2.43-2-4.33a25.58,25.58,0,0,1,2.5-10.11c.79-1.75-1.79-3.27-2.59-1.51Z" transform="translate(0.5 10.31)"/></svg>
