<svg id="Layer_1" data-name="Layer 1" xmlns="http://www.w3.org/2000/svg" width="1920" height="1090.31" viewBox="0 0 1920 1090.31"><defs><style>.cls-1{fill:#fff;}.cls-2{fill:#d6b5b5;}.cls-3{fill:#fbe3de;}</style></defs><title>splash</title><rect class="cls-1" y="16.31" width="1920" height="1074"/><path class="cls-2" d="M198.24,3.64c-5,69.9-4.64,140.05-1.65,210s8.62,140.06,14.15,210q4.71,59.61,9.43,119.23c.15,1.91,3.15,1.93,3,0-5.54-70.1-11.35-140.19-16.46-210.32-5.09-69.92-9.12-140-9.31-210.11-.11-39.64,1-79.29,3.84-118.84.14-1.93-2.86-1.92-3,0Z" transform="translate(0 10.31)"/><path class="cls-2" d="M551.87,5.24Q533.14,108.13,520.4,212,507.54,316.81,500.92,422.3q-3.72,59.34-5.48,118.77c-.11,3.86,5.89,3.86,6,0q3.1-104.61,12.29-208.91,9.25-104.84,24.69-209,8.66-58.32,19.23-116.33c.69-3.78-5.09-5.4-5.78-1.6Z" transform="translate(0 10.31)"/><path class="cls-2" d="M902.87-2.75q.15,107.13,1.94,214.23t5.25,214.18q2,60.75,4.44,121.49c.08,1.92,3.08,1.93,3,0q-4.38-107-7.12-214.12t-3.81-214.21Q906,58,905.87-2.75a1.5,1.5,0,0,0-3,0Z" transform="translate(0 10.31)"/><path class="cls-2" d="M1093.7-8.87c-2.44,89.43-4.8,179.06,1.37,268.39,3,43.28,8,86.46,16.08,129.1,8.23,43.41,21.18,85.54,31.65,128.41,11.61,47.5,19.55,97.27,7.82,145.57-.45,1.88,2.44,2.68,2.9.8,20.76-85.57-17.17-171.08-35-253.59-18.89-87.34-23.94-177-24.31-266.18C1094,92.79,1095.31,42,1096.7-8.87c0-1.93-3-1.93-3,0Z" transform="translate(0 10.31)"/><path class="cls-2" d="M697.33,3.52q2.94,152.4,8.76,304.72t14.56,304.61q4.92,85.6,10.73,171.15c.39,5.75,9.4,5.79,9,0Q730,631.82,722.56,479.48t-12-304.67Q708,89.18,706.33,3.52c-.12-5.79-9.12-5.81-9,0Z" transform="translate(0 10.31)"/><path class="cls-2" d="M1404.67-2.78c-2.9,94.87-7.4,190-22.56,283.83A1052.62,1052.62,0,0,1,1351,417.6c-13.38,44.27-29.35,87.78-40.77,132.63-12.41,48.75-19,99.45-9.23,149.29.38,1.89,3.27,1.09,2.9-.8-18.1-92.39,19.74-183,46.71-269.64,27.73-89,41.85-181.24,49.17-274,4.14-52.51,6.25-105.17,7.86-157.81.06-1.94-2.94-1.93-3,0Z" transform="translate(0 10.31)"/><path class="cls-2" d="M1542.84,1.41c-3.54,101.22,7.7,202.05,17.69,302.61q15.08,151.78,17.32,304.11c.93,57.47,1,115,1,172.44,0,3.86,6,3.87,6,0-.1-101.73-.2-203.5-5.13-305.13-4.9-101.34-17.61-201.9-25.7-303-4.55-56.9-7.22-114-5.22-171.06.13-3.86-5.87-3.86-6,0Z" transform="translate(0 10.31)"/><path class="cls-2" d="M330,5.39q-26.37,168.93-37,339.8-5.3,85.6-6.59,171.4c-.82,55.23-.68,110.55,3.31,165.66,4.43,61.1,13.74,122,31.79,180.64,1.13,3.68,6.92,2.11,5.78-1.59-32.32-105.06-36.16-215.87-35.12-325q1.62-169.57,19-338.5Q320.95,102.08,335.82,7c.59-3.78-5.19-5.41-5.79-1.6Z" transform="translate(0 10.31)"/><path class="cls-2" d="M50.59-.82C47.82,104,45.06,208.84,44.08,313.69c-.49,52-1,104.05,1.11,156A1064.3,1064.3,0,0,0,62.5,621.78c10.59,56.43,24.92,112.07,39.25,167.64,1.44,5.61,10.13,3.23,8.68-2.39C97.72,737.72,85,688.39,74.9,638.46a1056.62,1056.62,0,0,1-20-152.92c-2.77-51.57-2.39-103.26-2-154.87q.59-77.9,2.33-155.77Q57.12,87,59.59-.82c.15-5.79-8.85-5.79-9,0Z" transform="translate(0 10.31)"/><path class="cls-2" d="M1828.7-.77a2323.22,2323.22,0,0,0-99.13,654.82q-.66,93.14,6.21,186.11c.43,5.75,9.43,5.79,9,0a2311.51,2311.51,0,0,1,45.91-658.27q19.69-91,46.69-180.27c1.68-5.55-7-7.93-8.68-2.39Z" transform="translate(0 10.31)"/><ellipse class="cls-3" cx="739.5" cy="872.81" rx="37.5" ry="33.5"/><ellipse class="cls-3" cx="739" cy="841.56" rx="19" ry="12.75"/><rect class="cls-3" x="723.5" y="805.81" width="30" height="30"/><ellipse class="cls-3" cx="738.5" cy="805.81" rx="15.5" ry="11.5"/><ellipse class="cls-3" cx="329.16" cy="924.08" rx="45.54" ry="40.68" transform="translate(-119.57 62.09) rotate(-7.62)"/><ellipse class="cls-3" cx="323.53" cy="886.55" rx="23.07" ry="15.48" transform="translate(-114.65 61.01) rotate(-7.62)"/><rect class="cls-3" x="301.37" y="843.44" width="36.43" height="36.43" transform="translate(-111.38 60.27) rotate(-7.62)"/><ellipse class="cls-3" cx="317.17" cy="843.6" rx="18.82" ry="13.96" transform="translate(-109.01 59.79) rotate(-7.62)"/><ellipse class="cls-3" cx="498.5" cy="621.81" rx="37.5" ry="33.5"/><ellipse class="cls-3" cx="498" cy="590.56" rx="19" ry="12.75"/><rect class="cls-3" x="482.5" y="554.81" width="30" height="30"/><ellipse class="cls-3" cx="497.5" cy="554.81" rx="15.5" ry="11.5"/><ellipse class="cls-3" cx="916.5" cy="576.04" rx="18.5" ry="16.53"/><ellipse class="cls-3" cx="916.25" cy="560.62" rx="9.37" ry="6.29"/><rect class="cls-3" x="908.61" y="542.99" width="14.8" height="14.8"/><ellipse class="cls-3" cx="916.01" cy="542.99" rx="7.65" ry="5.67"/><ellipse class="cls-3" cx="226.18" cy="567.54" rx="13" ry="11.61" transform="translate(-83.49 51.2) rotate(-8.73)"/><ellipse class="cls-3" cx="224.37" cy="556.85" rx="6.59" ry="4.42" transform="matrix(0.99, -0.15, 0.15, 0.99, -81.89, 50.8)"/><rect class="cls-3" x="217.91" y="544.57" width="10.4" height="10.4" transform="translate(-80.83 50.53) rotate(-8.73)"/><ellipse class="cls-3" cx="222.32" cy="544.63" rx="5.37" ry="3.99" transform="translate(-80.06 50.35) rotate(-8.73)"/><ellipse class="cls-3" cx="120.94" cy="845.66" rx="31.95" ry="28.55" transform="translate(-191.06 60.72) rotate(-13.28)"/><ellipse class="cls-3" cx="114.41" cy="819.84" rx="16.19" ry="10.86" transform="translate(-185.31 58.53) rotate(-13.28)"/><rect class="cls-3" x="97.15" y="789.95" width="25.56" height="25.56" transform="translate(-181.49 57.05) rotate(-13.28)"/><ellipse class="cls-3" cx="106.99" cy="790.29" rx="13.21" ry="9.8" transform="translate(-178.71 56.04) rotate(-13.28)"/><ellipse class="cls-3" cx="1308.79" cy="733.49" rx="18.5" ry="16.53" transform="matrix(0.98, -0.21, 0.21, 0.98, -123.08, 295.84)"/><ellipse class="cls-3" cx="1305.37" cy="718.45" rx="9.37" ry="6.29" transform="translate(-120.06 294.81) rotate(-11.9)"/><rect class="cls-3" x="1295.62" y="701.09" width="14.8" height="14.8" transform="translate(-118.05 294.11) rotate(-11.9)"/><ellipse class="cls-3" cx="1301.49" cy="701.25" rx="7.65" ry="5.67" transform="translate(-116.6 293.64) rotate(-11.9)"/><ellipse class="cls-3" cx="1144.05" cy="697.45" rx="16.53" ry="18.5" transform="translate(211.17 1669.55) rotate(-77.24)"/><ellipse class="cls-3" cx="1147.21" cy="682.36" rx="6.29" ry="9.37" transform="translate(228.36 1660.88) rotate(-77.24)"/><rect class="cls-3" x="1141.83" y="664.92" width="14.8" height="14.8" transform="translate(176.84 -226.87) rotate(12.76)"/><ellipse class="cls-3" cx="1150.87" cy="665.11" rx="5.67" ry="7.65" transform="translate(248.03 1651) rotate(-77.24)"/><ellipse class="cls-3" cx="1581.5" cy="858.81" rx="37.5" ry="33.5"/><ellipse class="cls-3" cx="1581" cy="827.56" rx="19" ry="12.75"/><rect class="cls-3" x="1565.5" y="791.81" width="30" height="30"/><ellipse class="cls-3" cx="1580.5" cy="791.81" rx="15.5" ry="11.5"/><ellipse class="cls-3" cx="1738.5" cy="928.07" rx="59.6" ry="53.24"/><ellipse class="cls-3" cx="1737.71" cy="878.41" rx="30.2" ry="20.26"/><rect class="cls-3" x="1713.07" y="821.59" width="47.68" height="47.68"/><ellipse class="cls-3" cx="1736.91" cy="821.59" rx="24.63" ry="18.28"/></svg>
